<?xml version="1.0" ?><!DOCTYPE svg  PUBLIC '-//W3C//DTD SVG 1.1//EN'  'http://www.w3.org/Graphics/SVG/1.1/DTD/svg11.dtd'><svg enable-background="new 0 0 24 24" height="24px" id="Layer_1" version="1.1" fill="#764abc" viewBox="0 0 24 24" width="24px" xml:space="preserve" xmlns="http://www.w3.org/2000/svg" xmlns:xlink="http://www.w3.org/1999/xlink"><g><path d="M23.5,19.5h-23C0.224,19.5,0,19.275,0,19V5c0-0.275,0.224-0.5,0.5-0.5h23C23.775,4.5,24,4.725,24,5v14   C24,19.275,23.775,19.5,23.5,19.5z M1,18.5h22v-13H1V18.5z"/><path d="M12,14.584c-0.108,0-0.218-0.035-0.31-0.107l-9-7.107C2.473,7.197,2.437,6.884,2.607,6.667   C2.778,6.451,3.093,6.414,3.31,6.584l9,7.109c0.217,0.172,0.252,0.484,0.083,0.701C12.293,14.52,12.147,14.584,12,14.584z"/><path d="M12,14.584c-0.148,0-0.294-0.064-0.393-0.189c-0.171-0.218-0.134-0.529,0.083-0.701l9-7.109   c0.218-0.17,0.531-0.133,0.703,0.083c0.172,0.218,0.135,0.53-0.082,0.702l-9,7.107C12.218,14.549,12.109,14.584,12,14.584z"/><path d="M3,17.275c-0.173,0-0.342-0.091-0.434-0.25c-0.138-0.239-0.055-0.545,0.185-0.685l7-4.021   c0.24-0.139,0.545-0.056,0.683,0.186c0.138,0.239,0.055,0.545-0.185,0.684l-7,4.021C3.17,17.255,3.085,17.275,3,17.275z"/><path d="M21,17.275c-0.084,0-0.17-0.021-0.249-0.065l-7-4.021c-0.239-0.14-0.321-0.443-0.185-0.685   c0.137-0.24,0.441-0.323,0.683-0.187l7,4.021c0.239,0.138,0.321,0.443,0.185,0.684C21.341,17.188,21.173,17.275,21,17.275z"/></g></svg>